<?xml version="1.0" encoding="UTF-8"?>
<svg xmlns="http://www.w3.org/2000/svg" xmlns:xlink="http://www.w3.org/1999/xlink" width="48pt" height="48pt" viewBox="0 0 48 48" version="1.1">
<g id="surface2278641">
<path style=" stroke:none;fill-rule:nonzero;fill:rgb(92.54902%,93.72549%,95.686275%);fill-opacity:1;" d="M 23.910156 3.808594 C 23.867188 3.816406 23.828125 3.828125 23.789062 3.839844 C 23.34375 3.941406 23.027344 4.34375 23.039062 4.800781 L 23.039062 10.558594 C 23.035156 10.90625 23.214844 11.226562 23.515625 11.402344 C 23.816406 11.578125 24.183594 11.578125 24.484375 11.402344 C 24.785156 11.226562 24.964844 10.90625 24.960938 10.558594 L 24.960938 4.800781 C 24.972656 4.523438 24.859375 4.257812 24.660156 4.070312 C 24.457031 3.878906 24.183594 3.785156 23.910156 3.808594 Z M 10.230469 9.449219 C 9.871094 9.515625 9.582031 9.777344 9.480469 10.125 C 9.378906 10.476562 9.484375 10.851562 9.75 11.101562 L 13.828125 15.179688 C 14.0625 15.464844 14.433594 15.597656 14.792969 15.515625 C 15.148438 15.429688 15.429688 15.148438 15.515625 14.792969 C 15.597656 14.433594 15.464844 14.0625 15.179688 13.828125 L 11.101562 9.75 C 10.902344 9.535156 10.613281 9.425781 10.320312 9.449219 C 10.289062 9.449219 10.261719 9.449219 10.230469 9.449219 Z M 37.46875 9.449219 C 37.253906 9.480469 37.050781 9.589844 36.898438 9.75 L 32.820312 13.828125 C 32.535156 14.0625 32.402344 14.433594 32.484375 14.792969 C 32.570312 15.148438 32.851562 15.429688 33.207031 15.515625 C 33.566406 15.597656 33.9375 15.464844 34.171875 15.179688 L 38.25 11.101562 C 38.550781 10.816406 38.636719 10.367188 38.460938 9.992188 C 38.28125 9.613281 37.882812 9.398438 37.46875 9.449219 Z M 23.910156 14.398438 C 23.878906 14.40625 23.851562 14.417969 23.820312 14.429688 C 23.761719 14.433594 23.699219 14.445312 23.640625 14.460938 C 23.628906 14.472656 23.621094 14.480469 23.609375 14.488281 C 18.515625 14.707031 14.398438 18.855469 14.398438 24 C 14.398438 29.285156 18.714844 33.601562 24 33.601562 C 29.285156 33.601562 33.601562 29.285156 33.601562 24 C 33.601562 18.875 29.515625 14.742188 24.449219 14.488281 C 24.417969 14.488281 24.394531 14.460938 24.359375 14.460938 C 24.261719 14.421875 24.160156 14.402344 24.058594 14.398438 C 24.042969 14.398438 24.019531 14.398438 24 14.398438 C 23.96875 14.398438 23.941406 14.398438 23.910156 14.398438 Z M 23.941406 16.320312 C 23.957031 16.320312 23.980469 16.320312 24 16.320312 C 24.03125 16.320312 24.058594 16.320312 24.089844 16.320312 C 28.289062 16.367188 31.679688 19.789062 31.679688 24 C 31.679688 28.246094 28.246094 31.679688 24 31.679688 C 19.757812 31.679688 16.320312 28.246094 16.320312 24 C 16.320312 19.777344 19.726562 16.355469 23.941406 16.320312 Z M 4.53125 23.039062 C 4 23.113281 3.628906 23.605469 3.703125 24.136719 C 3.78125 24.664062 4.269531 25.035156 4.800781 24.960938 L 10.558594 24.960938 C 10.90625 24.964844 11.226562 24.785156 11.402344 24.484375 C 11.578125 24.183594 11.578125 23.816406 11.402344 23.515625 C 11.226562 23.214844 10.90625 23.035156 10.558594 23.039062 L 4.800781 23.039062 C 4.769531 23.039062 4.738281 23.039062 4.710938 23.039062 C 4.679688 23.039062 4.648438 23.039062 4.621094 23.039062 C 4.589844 23.039062 4.558594 23.039062 4.53125 23.039062 Z M 37.171875 23.039062 C 36.640625 23.113281 36.269531 23.605469 36.34375 24.136719 C 36.421875 24.664062 36.910156 25.035156 37.441406 24.960938 L 43.199219 24.960938 C 43.546875 24.964844 43.867188 24.785156 44.042969 24.484375 C 44.214844 24.183594 44.214844 23.816406 44.042969 23.515625 C 43.867188 23.214844 43.546875 23.035156 43.199219 23.039062 L 37.441406 23.039062 C 37.410156 23.039062 37.378906 23.039062 37.351562 23.039062 C 37.320312 23.039062 37.289062 23.039062 37.261719 23.039062 C 37.230469 23.039062 37.199219 23.039062 37.171875 23.039062 Z M 14.398438 32.519531 C 14.183594 32.550781 13.980469 32.660156 13.828125 32.820312 L 9.75 36.898438 C 9.464844 37.132812 9.332031 37.503906 9.417969 37.863281 C 9.5 38.21875 9.78125 38.5 10.136719 38.582031 C 10.496094 38.667969 10.867188 38.535156 11.101562 38.25 L 15.179688 34.171875 C 15.464844 33.894531 15.550781 33.472656 15.398438 33.109375 C 15.246094 32.746094 14.882812 32.511719 14.488281 32.519531 C 14.460938 32.519531 14.429688 32.519531 14.398438 32.519531 Z M 33.300781 32.519531 C 32.941406 32.582031 32.652344 32.847656 32.550781 33.195312 C 32.449219 33.546875 32.554688 33.921875 32.820312 34.171875 L 36.898438 38.25 C 37.132812 38.535156 37.503906 38.667969 37.863281 38.582031 C 38.21875 38.5 38.5 38.21875 38.582031 37.863281 C 38.667969 37.503906 38.535156 37.132812 38.25 36.898438 L 34.171875 32.820312 C 33.988281 32.628906 33.742188 32.523438 33.480469 32.519531 C 33.449219 32.519531 33.421875 32.519531 33.390625 32.519531 C 33.359375 32.519531 33.328125 32.519531 33.300781 32.519531 Z M 23.910156 36.449219 C 23.867188 36.457031 23.828125 36.46875 23.789062 36.480469 C 23.34375 36.582031 23.027344 36.984375 23.039062 37.441406 L 23.039062 43.199219 C 23.035156 43.546875 23.214844 43.867188 23.515625 44.042969 C 23.816406 44.214844 24.183594 44.214844 24.484375 44.042969 C 24.785156 43.867188 24.964844 43.546875 24.960938 43.199219 L 24.960938 37.441406 C 24.972656 37.164062 24.859375 36.894531 24.660156 36.707031 C 24.457031 36.515625 24.183594 36.421875 23.910156 36.449219 Z M 23.910156 36.449219 "/>
</g>
</svg>
